<svg xmlns="http://www.w3.org/2000/svg" xmlns:xlink="http://www.w3.org/1999/xlink" version="1.1" width="100%" height="100%" viewBox="50 280 1180 300" xml:space="preserve" preserveAspectRatio="xMidYMid meet">
<defs>
    <style>
        /* Default Color (Black for Light Backgrounds) */
        .adaptive-color { fill: #000000; }
        
        /* White Color for Dark Backgrounds (Dark Mode) */
        @media (prefers-color-scheme: dark) {
            .adaptive-color { fill: #ffffff; }
        }
    </style>
</defs>

<g transform="matrix(1.9211538461538453 0 0 1.9211538461538453 636.9923265296793 438.50548702189155)" id="visernic-logo">
    <g paint-order="stroke">
        <g transform="matrix(1 0 0 1 0 0)" id="text-logo-path-0">
            <path class="adaptive-color" style="stroke: none; stroke-width: 0;" paint-order="stroke" transform=" translate(-283.23, 63.625)" d="M 56.94 0 L 34.07 0 L 0 -89.42 L 25.97 -89.42 L 45.51 -33.65 L 64.96 -89.42 L 91.01 -89.42 L 56.94 0 Z M 121.11 -113.72 L 121.11 -113.72 Q 121.11 -110.55 119.9 -107.79 Q 118.69 -105.04 116.6 -102.99 Q 114.51 -100.95 111.71 -99.74 Q 108.92 -98.53 105.74 -98.53 L 105.74 -98.53 Q 102.57 -98.53 99.77 -99.74 Q 96.98 -100.95 94.93 -102.99 Q 92.89 -105.04 91.68 -107.79 Q 90.47 -110.55 90.47 -113.72 L 90.47 -113.72 Q 90.47 -116.81 91.68 -119.61 Q 92.89 -122.41 94.93 -124.45 Q 96.98 -126.5 99.77 -127.71 Q 102.57 -128.92 105.74 -128.92 L 105.74 -128.92 Q 108.92 -128.92 111.71 -127.71 Q 114.51 -126.5 116.6 -124.45 Q 118.69 -122.41 119.9 -119.61 Q 121.11 -116.81 121.11 -113.72 Z M 117.18 -89.42 L 117.18 0 L 94.22 0 L 94.22 -89.42 L 117.18 -89.42 Z M 178.17 0 L 178.17 0 L 126.07 0 L 126.07 -22.71 L 178.17 -22.71 Q 180.51 -22.71 182.18 -24.38 Q 183.85 -26.05 183.85 -28.39 L 183.85 -28.39 Q 183.85 -30.81 182.18 -31.56 Q 180.51 -32.31 178.17 -32.31 L 178.17 -32.31 L 154.46 -32.31 Q 148.53 -32.31 143.36 -34.57 Q 138.18 -36.82 134.34 -40.7 Q 130.5 -44.59 128.29 -49.76 Q 126.07 -54.94 126.07 -60.87 L 126.07 -60.87 Q 126.07 -66.8 128.29 -71.97 Q 130.5 -77.15 134.34 -80.99 Q 138.18 -84.83 143.36 -87.04 Q 148.53 -89.26 154.46 -89.26 L 154.46 -89.26 L 200.64 -89.26 L 200.64 -66.55 L 154.46 -66.55 Q 152.12 -66.55 150.45 -64.88 Q 148.78 -63.21 148.78 -60.87 L 148.78 -60.87 Q 148.78 -58.45 150.45 -56.74 Q 152.12 -55.02 154.46 -55.02 L 154.46 -55.02 L 178.17 -55.02 Q 184.02 -55.02 189.2 -53.06 Q 194.37 -51.1 198.21 -47.59 Q 202.05 -44.09 204.31 -39.16 Q 206.56 -34.23 206.56 -28.39 L 206.56 -28.39 Q 206.56 -22.46 204.31 -17.33 Q 202.05 -12.19 198.21 -8.31 Q 194.37 -4.43 189.2 -2.21 Q 184.02 0 178.17 0 Z M 291.52 -73.39 L 248.77 -21.88 Q 250.1 -21.46 251.44 -21.33 Q 252.78 -21.21 254.11 -21.21 L 254.11 -21.21 Q 257.45 -21.21 260.54 -22.13 Q 263.63 -23.04 266.34 -24.76 Q 269.06 -26.47 271.19 -28.93 Q 273.32 -31.39 274.65 -34.4 L 274.65 -34.4 L 291.35 -17.62 Q 288.18 -13.11 284.04 -9.52 Q 279.91 -5.93 275.11 -3.42 Q 270.31 -0.92 265.01 0.38 Q 259.71 1.67 254.11 1.67 L 254.11 1.67 Q 244.68 1.67 236.37 -1.84 Q 228.06 -5.34 221.84 -11.61 Q 215.62 -17.87 212.03 -26.51 Q 208.44 -35.15 208.44 -45.51 L 208.44 -45.51 Q 208.44 -56.11 212.03 -64.88 Q 215.62 -73.64 221.84 -79.82 Q 228.06 -86 236.37 -89.42 Q 244.68 -92.85 254.11 -92.85 L 254.11 -92.85 Q 259.71 -92.85 265.05 -91.51 Q 270.39 -90.18 275.19 -87.67 Q 280 -85.17 284.17 -81.53 Q 288.34 -77.9 291.52 -73.39 L 291.52 -73.39 Z M 233.91 -33.65 L 260.46 -68.88 Q 258.87 -69.47 257.33 -69.64 Q 255.78 -69.8 254.11 -69.8 L 254.11 -69.8 Q 249.44 -69.8 245.3 -68.09 Q 241.17 -66.38 238.12 -63.21 Q 235.07 -60.03 233.32 -55.57 Q 231.57 -51.1 231.57 -45.51 L 231.57 -45.51 Q 231.57 -44.25 231.69 -42.67 Q 231.82 -41.08 232.11 -39.45 Q 232.4 -37.82 232.82 -36.32 Q 233.24 -34.82 233.91 -33.65 L 233.91 -33.65 Z M 320.28 -49.26 L 320.28 0 L 297.48 0 L 297.48 -89.42 L 303 -89.42 L 310.51 -78.82 Q 316.02 -83.83 323.03 -86.54 Q 330.05 -89.26 337.56 -89.26 L 337.56 -89.26 L 357.69 -89.26 L 357.69 -66.55 L 337.56 -66.55 Q 333.97 -66.55 330.8 -65.21 Q 327.63 -63.87 325.29 -61.54 Q 322.95 -59.2 321.61 -56.03 Q 320.28 -52.85 320.28 -49.26 L 320.28 -49.26 Z M 385.61 -51.1 L 385.61 0 L 362.82 0 L 362.82 -89.42 L 368.33 -89.42 L 375.84 -80.74 Q 381.35 -85.75 388.33 -88.46 Q 395.3 -91.18 402.9 -91.18 L 402.9 -91.18 Q 411.08 -91.18 418.34 -88.05 Q 425.61 -84.92 431.03 -79.45 Q 436.46 -73.98 439.59 -66.67 Q 442.72 -59.37 442.72 -51.1 L 442.72 -51.1 L 442.72 0 L 419.93 0 L 419.93 -51.1 Q 419.93 -54.61 418.59 -57.74 Q 417.26 -60.87 414.92 -63.21 Q 412.58 -65.54 409.49 -66.88 Q 406.4 -68.22 402.9 -68.22 L 402.9 -68.22 Q 399.31 -68.22 396.13 -66.88 Q 392.96 -65.54 390.62 -63.21 Q 388.28 -60.87 386.95 -57.74 Q 385.61 -54.61 385.61 -51.1 L 385.61 -51.1 Z M 480.33 -113.72 L 480.33 -113.72 Q 480.33 -110.55 479.12 -107.79 Q 477.91 -105.04 475.83 -102.99 Q 473.74 -100.95 470.94 -99.74 Q 468.14 -98.53 464.97 -98.53 L 464.97 -98.53 Q 461.8 -98.53 459 -99.74 Q 456.2 -100.95 454.16 -102.99 Q 452.11 -105.04 450.9 -107.79 Q 449.69 -110.55 449.69 -113.72 L 449.69 -113.72 Q 449.69 -116.81 450.9 -119.61 Q 452.11 -122.41 454.16 -124.45 Q 456.2 -126.5 459 -127.71 Q 461.8 -128.92 464.97 -128.92 L 464.97 -128.92 Q 468.14 -128.92 470.94 -127.71 Q 473.74 -126.5 475.83 -124.45 Q 477.91 -122.41 479.12 -119.61 Q 480.33 -116.81 480.33 -113.72 Z M 476.41 -89.42 L 476.41 0 L 453.45 0 L 453.45 -89.42 L 476.41 -89.42 Z M 566.46 -71.64 L 566.46 -71.64 L 549.76 -54.86 Q 548.51 -58.36 546.34 -61.16 Q 544.16 -63.96 541.45 -65.88 Q 538.74 -67.8 535.56 -68.8 Q 532.39 -69.8 529.05 -69.8 L 529.05 -69.8 Q 524.38 -69.8 520.24 -67.88 Q 516.11 -65.96 513.06 -62.5 Q 510.01 -59.03 508.26 -54.27 Q 506.51 -49.51 506.51 -43.75 L 506.51 -43.75 Q 506.51 -39.08 508.26 -34.98 Q 510.01 -30.89 513.06 -27.8 Q 516.11 -24.71 520.24 -22.96 Q 524.38 -21.21 529.05 -21.21 L 529.05 -21.21 Q 532.39 -21.21 535.48 -22.13 Q 538.57 -23.04 541.28 -24.76 Q 544 -26.47 546.13 -28.93 Q 548.26 -31.39 549.59 -34.4 L 549.59 -34.4 L 566.29 -17.62 Q 563.12 -13.11 558.99 -9.52 Q 554.85 -5.93 550.05 -3.42 Q 545.25 -0.92 539.95 0.38 Q 534.65 1.67 529.05 1.67 L 529.05 1.67 Q 519.62 1.67 511.31 -1.88 Q 503 -5.43 496.78 -11.61 Q 490.56 -17.78 486.97 -26.05 Q 483.38 -34.32 483.38 -43.75 L 483.38 -43.75 Q 483.38 -54.02 486.97 -62.96 Q 490.56 -71.89 496.78 -78.53 Q 503 -85.17 511.31 -89.01 Q 519.62 -92.85 529.05 -92.85 L 529.05 -92.85 Q 534.65 -92.85 540.03 -91.43 Q 545.42 -90.01 550.3 -87.3 Q 555.19 -84.58 559.32 -80.66 Q 563.45 -76.73 566.46 -71.64 Z" />
        </g>
    </g>
</g>

<g transform="matrix(0.8256316307010804 0.05773378777464829 -0.05773378777464829 0.8256316307010804 173.08233796425804 473.55211294326836)" id="logo-logo">
    <g paint-order="stroke">
        <g transform="matrix(0.21062585913449428 0 0 -0.21062585913449425 34.873323496898195 -25.482569567386747)">
            <path style="stroke: none; stroke-width: 1; fill: rgb(5,170,28); fill-rule: nonzero; opacity: 1;" paint-order="stroke" transform=" translate(-2148.3099999999995, -1578.42)" d="M 1892.23 1681.94 L 1961.78 1564.66 L 2229.74 1690.13 L 1910.1299999999997 1490.25 L 1837.2799999999997 1292.51 L 2024.3499999999997 1460.23 L 2130.0399999999995 1291.81 L 2459.3399999999997 1865.03 L 1892.2299999999996 1681.94" stroke-linecap="round" />
        </g>
        <g transform="matrix(0.21062585913449428 0 0 -0.21062585913449425 -0.4707487951654912 51.528563307958365)">
            <path class="adaptive-color" style="stroke: none; stroke-width: 1; fill-rule: nonzero; opacity: 1;" paint-order="stroke" transform=" translate(-1980.505, -1212.79)" d="M 2009.89 1378.18 L 1866.2900000000002 1249.43 L 1984.0100000000002 1047.4 L 2094.7200000000003 1232.6000000000001 L 2009.8900000000003 1378.18" stroke-linecap="round" />
        </g>
        <g transform="matrix(0.21062585913449428 0 0 -0.21062585913449425 -57.83891404762778 -32.552226529236094)">
             <path class="adaptive-color" style="stroke: none; stroke-width: 1; fill-rule: nonzero; opacity: 1;" paint-order="stroke" transform=" translate(-1708.1349999999998, -1611.9850000000001)" d="M 1723.28 1867.47 L 1506.1399999999999 1867.47 L 1805.7399999999998 1356.5 L 1861.7399999999998 1520.66 L 1910.1299999999999 1550.92 L 1723.28 1867.47" stroke-linecap="round" />
        </g>
    </g>
</g>
</svg>
